HIERARCHY
ROOT hips
{
  OFFSET 0 10.680822821525009 1.3929502295107734
  CHANNELS 6 Xposition Yposition Zposition Yrotation Xrotation Zrotation
  JOINT spine
  {
    OFFSET -7.042017322922631e-31 0.6058489940359625 0
    CHANNELS 3 Yrotation Xrotation Zrotation
    JOINT chest
    {
      OFFSET 0 1.2699794144455032 0
      CHANNELS 3 Yrotation Xrotation Zrotation
      JOINT upperChest
      {
        OFFSET 0 1.217799211677689 0
        CHANNELS 3 Yrotation Xrotation Zrotation
        JOINT neck
        {
          OFFSET 0 1.5248826104153006 0
          CHANNELS 3 Yrotation Xrotation Zrotation
          JOINT head
          {
            OFFSET 0 0.8197772727844447 0
            CHANNELS 3 Yrotation Xrotation Zrotation
            JOINT leftEye
            {
              OFFSET 0.2793952361220866 0.6769952096623495 0.1830357412467788
              CHANNELS 3 Yrotation Xrotation Zrotation
              End Site
              {
                OFFSET 0.2793952361220866 0.6769952096623495 0.1830357412467788
              }
            }
            JOINT rightEye
            {
              OFFSET -0.27939522230689573 0.676995205357064 0.18303631459760622
              CHANNELS 3 Yrotation Xrotation Zrotation
              End Site
              {
                OFFSET -0.27939522230689573 0.676995205357064 0.18303631459760622
              }
            }
          }
        }
        JOINT leftShoulder
        {
          OFFSET 0.41486978509200423 1.1670505408695453 0
          CHANNELS 3 Yrotation Xrotation Zrotation
          JOINT leftUpperArm
          {
            OFFSET 0.9737926108153417 0 0
            CHANNELS 3 Yrotation Xrotation Zrotation
            JOINT leftLowerArm
            {
              OFFSET 2.5269332222665284 0 0
              CHANNELS 3 Yrotation Xrotation Zrotation
              JOINT leftHand
              {
                OFFSET 2.4263782738425914 0 0
                CHANNELS 3 Yrotation Xrotation Zrotation
                JOINT leftIndexProximal
                {
                  OFFSET 0.724320348022514 0.08170607082582437 0.20360061616140124
                  CHANNELS 3 Yrotation Xrotation Zrotation
                  JOINT leftIndexIntermediate
                  {
                    OFFSET 0.36548960630744587 -0.010566596513783999 -0.01414783573280308
                    CHANNELS 3 Yrotation Xrotation Zrotation
                    JOINT leftIndexDistal
                    {
                      OFFSET 0.22502819650693362 -0.007863819831430696 -0.007567681939621526
                      CHANNELS 3 Yrotation Xrotation Zrotation
                      End Site
                      {
                        OFFSET 0.22502819650693362 -0.007863819831430696 -0.007567681939621526
                      }
                    }
                  }
                }
                JOINT leftLittleProximal
                {
                  OFFSET 0.6720322998298205 0.08170601055037707 -0.3230036039466837
                  CHANNELS 3 Yrotation Xrotation Zrotation
                  JOINT leftLittleIntermediate
                  {
                    OFFSET 0.34583592281688713 5.476543019078406e-8 1.3869203337180114e-7
                    CHANNELS 3 Yrotation Xrotation Zrotation
                    JOINT leftLittleDistal
                    {
                      OFFSET 0.19925728062053938 0.003098047439490381 0.0038303983709246925
                      CHANNELS 3 Yrotation Xrotation Zrotation
                      End Site
                      {
                        OFFSET 0.19925728062053938 0.003098047439490381 0.0038303983709246925
                      }
                    }
                  }
                }
                JOINT leftMiddleProximal
                {
                  OFFSET 0.7300436596551069 0.0817073395107144 0.022661722987926763
                  CHANNELS 3 Yrotation Xrotation Zrotation
                  JOINT leftMiddleIntermediate
                  {
                    OFFSET 0.40758254347686607 -0.0000012383587111308714 2.408460318820138e-7
                    CHANNELS 3 Yrotation Xrotation Zrotation
                    JOINT leftMiddleDistal
                    {
                      OFFSET 0.2514490105498507 0.0000013869132886590307 9.738618134136345e-8
                      CHANNELS 3 Yrotation Xrotation Zrotation
                      End Site
                      {
                        OFFSET 0.2514490105498507 0.0000013869132886590307 9.738618134136345e-8
                      }
                    }
                  }
                }
                JOINT leftRingProximal
                {
                  OFFSET 0.7217261161191838 0.08170601902187746 -0.15043395722184966
                  CHANNELS 3 Yrotation Xrotation Zrotation
                  JOINT leftRingIntermediate
                  {
                    OFFSET 0.37808807487521556 0.0000013754022405443322 2.2046919317952884e-7
                    CHANNELS 3 Yrotation Xrotation Zrotation
                    JOINT leftRingDistal
                    {
                      OFFSET 0.21812105442344254 -0.002713483731960231 -0.004991354517454624
                      CHANNELS 3 Yrotation Xrotation Zrotation
                      End Site
                      {
                        OFFSET 0.21812105442344254 -0.002713483731960231 -0.004991354517454624
                      }
                    }
                  }
                }
                JOINT leftThumbProximal
                {
                  OFFSET 0.10793587079521427 -0.1652791240518252 -0.07775251827190094
                  CHANNELS 3 Yrotation Xrotation Zrotation
                  JOINT leftThumbIntermediate
                  {
                    OFFSET 0.40355819082296684 -0.017484006740276614 0.3177776014416309
                    CHANNELS 3 Yrotation Xrotation Zrotation
                    JOINT leftThumbDistal
                    {
                      OFFSET 0.2318764658022603 -0.018510186824293617 0.21396001800186287
                      CHANNELS 3 Yrotation Xrotation Zrotation
                      End Site
                      {
                        OFFSET 0.2318764658022603 -0.018510186824293617 0.21396001800186287
                      }
                    }
                  }
                }
              }
            }
          }
        }
        JOINT rightShoulder
        {
          OFFSET -0.4148697850920044 1.1670505408695453 0
          CHANNELS 3 Yrotation Xrotation Zrotation
          JOINT rightUpperArm
          {
            OFFSET -0.9737926108153414 0 0
            CHANNELS 3 Yrotation Xrotation Zrotation
            JOINT rightLowerArm
            {
              OFFSET -2.5269332222665293 0 0
              CHANNELS 3 Yrotation Xrotation Zrotation
              JOINT rightHand
              {
                OFFSET -2.42637827384259 0 0
                CHANNELS 3 Yrotation Xrotation Zrotation
                JOINT rightIndexProximal
                {
                  OFFSET -0.724320348022514 0.08170607082582437 0.20360061616140124
                  CHANNELS 3 Yrotation Xrotation Zrotation
                  JOINT rightIndexIntermediate
                  {
                    OFFSET -0.36548960630744587 -0.010566596513783999 -0.01414783573280308
                    CHANNELS 3 Yrotation Xrotation Zrotation
                    JOINT rightIndexDistal
                    {
                      OFFSET -0.22502819650693362 -0.007863819831430696 -0.007567681939621526
                      CHANNELS 3 Yrotation Xrotation Zrotation
                      End Site
                      {
                        OFFSET -0.22502819650693362 -0.007863819831430696 -0.007567681939621526
                      }
                    }
                  }
                }
                JOINT rightLittleProximal
                {
                  OFFSET -0.6720322998298205 0.08170601055037707 -0.3230036039466837
                  CHANNELS 3 Yrotation Xrotation Zrotation
                  JOINT rightLittleIntermediate
                  {
                    OFFSET -0.34583592281688713 5.476543019078406e-8 1.3869203337180114e-7
                    CHANNELS 3 Yrotation Xrotation Zrotation
                    JOINT rightLittleDistal
                    {
                      OFFSET -0.19925728062053938 0.003098047439490381 0.0038303983709246925
                      CHANNELS 3 Yrotation Xrotation Zrotation
                      End Site
                      {
                        OFFSET -0.19925728062053938 0.003098047439490381 0.0038303983709246925
                      }
                    }
                  }
                }
                JOINT rightMiddleProximal
                {
                  OFFSET -0.7300436596551069 0.0817073395107144 0.022661722987926763
                  CHANNELS 3 Yrotation Xrotation Zrotation
                  JOINT rightMiddleIntermediate
                  {
                    OFFSET -0.40758254347686607 -0.0000012383587111308714 2.408460318820138e-7
                    CHANNELS 3 Yrotation Xrotation Zrotation
                    JOINT rightMiddleDistal
                    {
                      OFFSET -0.2514490105498507 0.0000013869132886590307 9.738618134136345e-8
                      CHANNELS 3 Yrotation Xrotation Zrotation
                      End Site
                      {
                        OFFSET -0.2514490105498507 0.0000013869132886590307 9.738618134136345e-8
                      }
                    }
                  }
                }
                JOINT rightRingProximal
                {
                  OFFSET -0.7217261161191838 0.08170601902187746 -0.15043395722184966
                  CHANNELS 3 Yrotation Xrotation Zrotation
                  JOINT rightRingIntermediate
                  {
                    OFFSET -0.37808807487521556 0.0000013754022405443322 2.2046919317952884e-7
                    CHANNELS 3 Yrotation Xrotation Zrotation
                    JOINT rightRingDistal
                    {
                      OFFSET -0.21812105442344254 -0.002713483731960231 -0.004991354517454624
                      CHANNELS 3 Yrotation Xrotation Zrotation
                      End Site
                      {
                        OFFSET -0.21812105442344254 -0.002713483731960231 -0.004991354517454624
                      }
                    }
                  }
                }
                JOINT rightThumbProximal
                {
                  OFFSET -0.10793587079521427 -0.1652791240518252 -0.07775251827190094
                  CHANNELS 3 Yrotation Xrotation Zrotation
                  JOINT rightThumbIntermediate
                  {
                    OFFSET -0.40355819082296684 -0.017484006740276614 0.3177776014416309
                    CHANNELS 3 Yrotation Xrotation Zrotation
                    JOINT rightThumbDistal
                    {
                      OFFSET -0.2318764658022603 -0.018510186824293617 0.21396001800186287
                      CHANNELS 3 Yrotation Xrotation Zrotation
                      End Site
                      {
                        OFFSET -0.2318764658022603 -0.018510186824293617 0.21396001800186287
                      }
                    }
                  }
                }
              }
            }
          }
        }
      }
    }
  }
  JOINT leftUpperLeg
  {
    OFFSET 0.8486251390888677 -0.4421577294694363 0
    CHANNELS 3 Yrotation Xrotation Zrotation
    JOINT leftLowerLeg
    {
      OFFSET 0 -4.10147812638609 0
      CHANNELS 3 Yrotation Xrotation Zrotation
      JOINT leftFoot
      {
        OFFSET -0.0002543926476658853 -4.77292286812444 0.007402811231737388
        CHANNELS 3 Yrotation Xrotation Zrotation
        JOINT leftToes
        {
          OFFSET 0 -0.7027875951174846 1.2062924140498823
          CHANNELS 3 Yrotation Xrotation Zrotation
          End Site
          {
            OFFSET 0 -0.7027875951174846 1.2062924140498823
          }
        }
      }
    }
  }
  JOINT rightUpperLeg
  {
    OFFSET -0.8486251390888677 -0.4421577294694363 0
    CHANNELS 3 Yrotation Xrotation Zrotation
    JOINT rightLowerLeg
    {
      OFFSET 0 -4.10147812638609 0
      CHANNELS 3 Yrotation Xrotation Zrotation
      JOINT rightFoot
      {
        OFFSET 0.0002543926476658853 -4.77292286812444 0.007402811231737388
        CHANNELS 3 Yrotation Xrotation Zrotation
        JOINT rightToes
        {
          OFFSET 0 -0.7027875951174846 1.2062924140498823
          CHANNELS 3 Yrotation Xrotation Zrotation
          End Site
          {
            OFFSET 0 -0.7027875951174846 1.2062924140498823
          }
        }
      }
    }
  }
}
MOTION
Frames: 4
Frame Time: 0.03333333333333333
0.04517902433872223 -4.780357333091171 0.336600124835968 2.1731080816917325 -10.907511908931355 2.6943901471933422 3.6591705132907912 15.781422555482301 -3.6939093851071694 1.2589819114975276 11.412148733343061 3.3185215481764994 0 0 0 -0.9001475092004365 -1.5248879430804174 -1.16326314608854 -8.49529162663562 -10.5263847532382 4.769815081991903 0 0 0 0 0 0 -2.654669236421718 0.5430021910231968 -2.018678253054387 -37.43468340166736 -14.885380987015264 -52.35993641975469 -74.91313472017296 -6.12001721358363 5.818187691299037 12.699547392067037 -33.86208840900617 9.327915663299164 -14.050151609125765 -2.2154675510229986 -2.531851175182258 4.092405097246457 1.5530121069032077 -41.54954852238495 4.085780712668752 1.5471191257643084 -41.46731219389073 7.267934310554123 7.651760958379804 -67.63475150417852 1.6437157011592671 3.917697300104995 -68.7046921994564 5.735435037935977 3.8882626348035796 -68.24687744427658 4.436206971636132 1.8820162581899813 -45.9619902230409 4.438605041531631 1.884499519485156 -45.99393039595802 4.437415161233912 1.8832386681066537 -45.97794936534996 5.219078975786129 2.8773857626803467 -57.716387745819866 5.219062375292608 2.8774361989141695 -57.71638591947914 5.219053862218667 2.877410553371269 -57.71634133612183 -5.155452982424076 6.653166983119693 -16.19248164445498 28.14146901732448 7.208148774052335 5.32212254128514 31.14610571548149 4.681028594252307 7.240434142605323 6.879464419055515 1.016354713304402 -5.742692829347724 23.334066504449055 -14.3500468679883 66.19931016748161 83.2537951017409 -6.204192169452824 -6.821536511179172 -21.143005518150428 -20.05931945332789 -12.71448738918905 13.811015213588483 -0.9883225288928045 -2.0353485114490506 -4.514889304930797 1.933879745207739 46.35693653337908 -4.503953036380638 1.9224653722685527 46.21202558292867 -5.832310261540551 4.01730118258423 69.09387317851535 -5.832284292431089 4.0173097413501315 69.09389923029619 -5.8323085586482 4.017279785669872 69.0938744001521 -5.606092271691517 3.498188854338991 63.903177735289766 -5.606089717862858 3.4982132323110258 63.903217523536874 -5.6060858871198285 3.498219219883201 63.903217523536874 -5.6423886810447925 3.5734582444924463 64.66873176867483 -5.6424000842670905 3.573457816774014 64.66873030467606 -5.642374634723282 3.573447551531698 64.6687226551897 5.959278111588879 -10.751639710434414 9.184452575530406 -22.452901877609083 15.465358794630633 -6.035809349261268 -26.67803957623059 8.539982337778834 2.896923402175078 9.97710745490361 -79.54023667646624 10.424824555637512 150.73760750085955 79.74726862279269 143.58790040241607 8.068761642544093 -8.698827241689719 4.5552547205509155 0.00000259243876170324 -5.8859688961915 -0.000006034221757091558 -18.867441339769847 -83.04317022423223 -0.008319228360939564 -128.5152666231223 83.46204955074731 -126.09522195380255 -0.3252836979144002 -2.0804258144877155 -8.176253621099216 0.000009752250138742668 -7.952125359336685 -0.000004429865169229569
0.04508667439222336 -4.780330630210312 0.33666887879371643 2.17445930464125 -10.90315322871138 2.6937437075550013 3.6637336253036437 15.77723316400232 -3.6902200710098416 1.2603356519864202 11.405523160402916 3.3230882704971085 0 0 0 -0.9009296373873018 -1.5235728797936028 -1.1652387120395604 -8.500090530189906 -10.522537819073259 4.767949395352941 0 0 0 0 0 0 -2.6650308724556706 0.5435698692962603 -2.0193562018996056 -37.45322518483479 -14.865379524586169 -52.34328861257562 -74.93096294762022 -6.120380000682962 5.8203212263313775 12.706524097396688 -33.87646344682734 9.333812457581187 -14.05055362067653 -2.214788934205159 -2.5291878598166218 4.090872677835882 1.5516164218372088 -41.53024789684305 4.0845746456652545 1.5460579254235418 -41.45251126969208 7.267934310554123 7.651760958379804 -67.63475150417852 1.6437157011592671 3.917697300104995 -68.7046921994564 5.735435037935977 3.8882626348035796 -68.24687744427658 4.436206971636132 1.8820162581899813 -45.9619902230409 4.438605041531631 1.884499519485156 -45.99393039595802 4.437415161233912 1.8832386681066537 -45.97794936534996 5.219078975786129 2.8773857626803467 -57.716387745819866 5.219062375292608 2.8774361989141695 -57.71638591947914 5.219053862218667 2.877410553371269 -57.71634133612183 -5.155452982424076 6.653166983119693 -16.19248164445498 28.206406052429696 7.181994936194689 5.406237519189541 31.14610571548149 4.681028594252307 7.240434142605323 6.8905976970730505 1.017819272576695 -5.745071243715709 23.29090212195153 -14.321369546214921 66.22826182126707 83.29659612664088 -6.204269032381349 -6.826725411701989 -21.148237675973814 -20.05089408449392 -12.714955153726494 13.791452786116501 -1.0253980385632233 -1.8844612228276427 -4.646793468330162 2.0764980060349907 48.13783916881522 -4.58039263553664 2.003604417640918 47.23392379371835 -5.832320904617504 4.017278501855028 69.09389123498435 -5.832284292431089 4.0173097413501315 69.09389923029619 -5.8323085586482 4.017279785669872 69.0938744001521 -5.606086312757945 3.498196338804022 63.903177735289766 -5.606089717862858 3.4982132323110258 63.903217523536874 -5.6060829076529926 3.498184577501857 63.90317924035786 -5.642378039892196 3.5734490485461947 64.66871500570328 -5.6424000842670905 3.573457816774014 64.66873030467606 -5.64239166056745 3.573446268376416 64.66871646970287 5.959277247255739 -10.751641448493233 9.184440868150268 -23.020764828273794 15.510754656472555 -7.277213247951889 -26.67803957623059 8.539982337778834 2.896923402175078 9.990664473423154 -79.54452651968954 10.411251849790734 150.75000549732795 79.7517017571931 143.59623339403706 8.096921770818597 -8.700107260474276 4.557483306295539 -0.00003617119351325181 -5.9058637566444085 -3.881432922492123e-7 -18.873767003785247 -83.04646989030918 -0.0015479963584838425 -128.50675963442177 83.46055004874086 -126.0858046620839 -0.3252243174591406 -2.0812041154852112 -8.175898913344591 -0.000002641828417227613 -7.951953808788585 -0.00000426851672047765
0.045075923204422 -4.780208559897812 0.3367822766304016 2.1717664087271307 -10.89300843694146 2.691127705848361 3.674101197627849 15.772245399077995 -3.6823075498038564 1.2630629941232066 11.387017317416726 3.330484298829286 0 0 0 -0.9029594728870836 -1.5233028851655384 -1.1615979038754405 -8.509828891586261 -10.51368484241733 4.771342752199404 0 0 0 0 0 0 -2.6907344658541734 0.5449072593248907 -2.009843047422554 -37.47678149188757 -14.826742249139985 -52.33001778513106 -74.9542382934013 -6.1207642547431735 5.823098646836156 12.710111649270814 -33.91470996124708 9.34429564034564 -14.050304954302028 -2.2152370733216404 -2.530878605649897 4.092911989292579 1.5534759831580292 -41.55583529682835 4.086413381130008 1.5476968075813846 -41.47526207137441 7.267934310554123 7.651760958379804 -67.63475150417852 1.6437157011592671 3.917697300104995 -68.7046921994564 5.735435037935977 3.8882626348035796 -68.24687744427658 4.436206971636132 1.8820162581899813 -45.9619902230409 4.438605041531631 1.884499519485156 -45.99393039595802 4.437415161233912 1.8832386681066537 -45.97794936534996 5.219078975786129 2.8773857626803467 -57.716387745819866 5.219062375292608 2.8774361989141695 -57.71638591947914 5.219053862218667 2.877410553371269 -57.71634133612183 -5.155452982424076 6.653166983119693 -16.19248164445498 28.157931186791753 7.19830906762974 5.388644738044105 31.14610571548149 4.681028594252307 7.240434142605323 6.902921455695892 1.0193081689139747 -5.744203999697564 23.230624434014832 -14.26513586304275 66.26129381045902 83.36679907138027 -6.20438110628046 -6.835195638827768 -21.170919587547036 -20.045346494146816 -12.723695007358954 13.758436235566279 -1.0874226462850434 -1.631390085143943 -4.839515371476155 2.301895619113871 50.85615635641138 -4.727560178337913 2.168375010598566 49.259041323599035 -5.8323085586482 4.017288344435548 69.09388239546317 -5.832284292431089 4.0173097413501315 69.09389923029619 -5.8323085586482 4.017279785669872 69.0938744001521 -5.606080353824252 3.498206389371443 63.903170084906165 -5.606089717862858 3.4982132323110258 63.903217523536874 -5.606072266699758 3.498194200385435 63.90317924035786 -5.64242477174012 3.5734259517513656 64.66870580984524 -5.6424000842670905 3.573457816774014 64.66873030467606 -5.642363231502196 3.573441563473733 64.66872411918888 5.959269610799337 -10.751616246641367 9.184425174385161 -24.214250304052534 15.522036065431703 -9.928137185004811 -26.67803957623059 8.539982337778834 2.896923402175078 10.035125609321772 -79.55486315889316 10.368674489033522 150.7086852395088 79.75060769059743 143.5571477460642 8.125139594082615 -8.702912607097064 4.55871233516167 0.000022722948924456102 -5.83387818221143 -0.000009723405811903128 -18.885259649147436 -83.05290448954246 0.016417174801681263 -128.47652298887738 83.46007028039638 -126.05305749747102 -0.32574280188535404 -2.0805259854782054 -8.173837678392868 0.000003832228729305199 -7.951498639842863 -0.000005213374202929919
0.045222800225019455 -4.780134173301132 0.33670127391815186 2.162686091223624 -10.877298081344328 2.686805200888034 3.687980944261225 15.768806733957817 -3.673191087858065 1.2660406028452895 11.357274448437366 3.332278452996845 0 0 0 -0.905671275830551 -1.5268507176331936 -1.1489541330446407 -8.524619431984306 -10.494824810475945 4.791062754441919 0 0 0 0 0 0 -2.717062964541658 0.5463055905142485 -1.9990490669523406 -37.48908035301298 -14.773063920525624 -52.32705804106606 -74.981186549328 -6.1212880428457614 5.826308688291644 12.660509670482389 -33.988288975778566 9.395513473678015 -14.049304484587939 -2.216925819942753 -2.537624438611551 4.097078857257592 1.5571431180407584 -41.60721162712943 4.089657660493688 1.5505513758554919 -41.51522281556402 7.267934310554123 7.651760958379804 -67.63475150417852 1.6437157011592671 3.917697300104995 -68.7046921994564 5.735435037935977 3.8882626348035796 -68.24687744427658 4.436206971636132 1.8820162581899813 -45.9619902230409 4.438605041531631 1.884499519485156 -45.99393039595802 4.437415161233912 1.8832386681066537 -45.97794936534996 5.219078975786129 2.8773857626803467 -57.716387745819866 5.219062375292608 2.8774361989141695 -57.71638591947914 5.219053862218667 2.877410553371269 -57.71634133612183 -5.155452982424076 6.653166983119693 -16.19248164445498 27.92315378380865 7.292001514817119 5.082973672640401 31.14610571548149 4.681028594252307 7.240434142605323 6.905917575707156 1.0194906919190068 -5.738793549720227 23.198187358788694 -14.220368465438618 66.27443031879051 83.42675406192784 -6.204423187674021 -6.842476234302082 -21.1956449267194 -19.998804981250572 -12.73579733071566 13.73360474418461 -1.1336673391418006 -1.4422495274932634 -4.97157347300985 2.4698340348733288 52.814220470333545 -4.87835367333185 2.3501484023662 51.42381857123727 -5.832288627499192 4.017284492990982 69.09389123498435 -5.832284292431089 4.0173097413501315 69.09389923029619 -5.8323085586482 4.017279785669872 69.0938744001521 -5.606071506823842 3.4981785899299025 63.90318538567335 -5.606089717862858 3.4982132323110258 63.903217523536874 -5.6060841845673535 3.498206603213304 63.90318538567335 -5.642384850229903 3.5734265933289917 64.66874861401864 -5.6424000842670905 3.573457816774014 64.66873030467606 -5.642413704942125 3.573440494177672 64.6687226551897 5.959297559083801 -10.75163884140501 9.184452575530406 -25.653412841872203 15.483857911353649 -12.803609660411945 -26.67803957623059 8.539982337778834 2.896923402175078 10.058165348224433 -79.57181152104711 10.352056371235962 150.67637020208676 79.74884207241615 143.5285156382596 8.133294577750178 -8.703146674837571 4.55909681699962 -0.000026372938043842724 -5.749930922683879 -0.000003086242258448842 -18.88764348465343 -83.06460355400563 0.03847352911752578 -128.3924663695163 83.45788178184948 -125.96765510358664 -0.32804715162193904 -2.0745069803795366 -8.16596493253126 -5.41273265463636e-7 -7.95398397188496 0.0000043099760809646315
